<svg xmlns="http://www.w3.org/2000/svg" width="64" height="16" viewBox="0 0 64 16"><path fill="#FFF" d="M8 12.6L.3 4.9l1.4-1.5L8 9.7l6.3-6.3 1.4 1.5z"/><path fill="#6C7079" d="M31 3h-6.6L21.7.3c-.2-.2-.4-.3-.7-.3h-4c-.6 0-1 .4-1 1v14c0 .6.4 1 1 1h14c.6 0 1-.4 1-1V4c0-.6-.4-1-1-1z"/><g fill="#6C7079"><path d="M47.8 7.4c-.2-.2-.5-.4-.8-.4H36c-.4 0-.8.2-.9.6l-3 7c-.2.6 0 1.4.9 1.4h11c.4 0 .8-.2.9-.6l3-7c.2-.3.1-.7-.1-1z"/><path d="M33.2 6.8C33.7 5.7 34.8 5 36 5h9V3c0-.6-.4-1-1-1h-5.6L36.7.3c-.2-.2-.4-.3-.7-.3h-3c-.6 0-1 .4-1 1v8.7l1.2-2.9z"/></g><path fill="#6C7079" d="M63 0H49c-.6 0-1 .4-1 1v14c0 .6.4 1 1 1h14c.6 0 1-.4 1-1V1c0-.6-.4-1-1-1zm-9 4c.6 0 1 .4 1 1s-.4 1-1 1-1-.4-1-1 .4-1 1-1zm-3 8l2-4 2 2 3-4 3 6H51z"/></svg>